<svg width="17" height="16" viewBox="0 0 17 16" fill="none" xmlns="http://www.w3.org/2000/svg">
<path d="M16.5074 6.09775C16.3804 5.66793 16.0096 5.35139 15.562 5.29474L11.3195 4.71165L9.64252 0.706594C9.39865 0.120164 8.72386 -0.156391 8.13592 0.0901764C7.85531 0.206796 7.63483 0.430039 7.51791 0.706594L5.8376 4.70831L1.59508 5.29141C0.96371 5.37804 0.522754 5.96114 0.609609 6.59089C0.646355 6.86078 0.779978 7.11068 0.983753 7.29394L4.18068 10.1361L3.52259 14.601C3.45244 15.0541 3.65955 15.504 4.0504 15.7472C4.4379 15.9938 4.93231 15.9838 5.30979 15.7239L8.57687 13.5081L11.844 15.7272C12.3718 16.0837 13.0866 15.9471 13.4474 15.4207C13.6111 15.1808 13.6779 14.8909 13.6345 14.6043L12.9764 10.1395L16.1733 7.29727C16.5107 6.99739 16.6444 6.52758 16.5074 6.09775Z" fill="#F7CA18"/>
</svg>
