<svg width="79" height="79" viewBox="0 0 79 79" fill="none" xmlns="http://www.w3.org/2000/svg">
<path d="M7.90002 39.4999C7.90002 31.1191 11.2293 23.0815 17.1555 17.1553C23.0816 11.2292 31.1192 7.8999 39.5 7.8999C47.8809 7.8999 55.9185 11.2292 61.8446 17.1553C67.7708 23.0815 71.1 31.1191 71.1 39.4999C71.1 47.8807 67.7708 55.9183 61.8446 61.8445C55.9185 67.7706 47.8809 71.0999 39.5 71.0999C31.1192 71.0999 23.0816 67.7706 17.1555 61.8445C11.2293 55.9183 7.90002 47.8807 7.90002 39.4999ZM26.2517 36.1266C26.0681 36.3102 25.9224 36.5282 25.8231 36.7681C25.7237 37.0081 25.6725 37.2652 25.6725 37.5249C25.6725 37.7846 25.7237 38.0417 25.8231 38.2817C25.9224 38.5216 26.0681 38.7396 26.2517 38.9232C26.4354 39.1068 26.6533 39.2525 26.8933 39.3519C27.1332 39.4512 27.3903 39.5024 27.65 39.5024C27.9097 39.5024 28.1669 39.4512 28.4068 39.3519C28.6467 39.2525 28.8647 39.1068 29.0483 38.9232L37.525 30.4426V53.3249C37.525 53.8487 37.7331 54.3511 38.1035 54.7214C38.4739 55.0918 38.9762 55.2999 39.5 55.2999C40.0238 55.2999 40.5262 55.0918 40.8966 54.7214C41.2669 54.3511 41.475 53.8487 41.475 53.3249V30.4426L49.9517 38.9232C50.3226 39.2941 50.8256 39.5024 51.35 39.5024C51.8745 39.5024 52.3775 39.2941 52.7483 38.9232C53.1192 38.5524 53.3275 38.0494 53.3275 37.5249C53.3275 37.0004 53.1192 36.4975 52.7483 36.1266L40.8983 24.2766C40.7149 24.0927 40.4969 23.9468 40.257 23.8472C40.017 23.7476 39.7598 23.6964 39.5 23.6964C39.2402 23.6964 38.983 23.7476 38.7431 23.8472C38.5031 23.9468 38.2852 24.0927 38.1017 24.2766L26.2517 36.1266Z" fill="#DE2A24"/>
</svg>
