<svg width="19" height="26" viewBox="0 0 19 26" fill="none" xmlns="http://www.w3.org/2000/svg">
<path fill-rule="evenodd" clip-rule="evenodd" d="M10.2104 20.2957C13.4439 20.2957 15.8705 18.8225 17.8276 16.4315C20.7732 12.8329 17.6036 9.25942 14.5313 10.0321C12.67 10.5002 11.0538 12.9097 9.52318 12.9097C8.46517 12.9097 7.46198 12.0992 7.46198 11.0631C7.46198 9.24803 8.28259 9.12658 10.0786 7.77588L12.4699 6.03102C13.4808 5.27507 13.0249 4.29235 12.1189 4.29235C11.6144 4.29235 8.85618 6.50675 8.44366 6.82055C7.54167 7.50669 6.60387 7.99211 6.08581 9.06077C5.55813 10.1487 5.54947 11.5532 6.09098 12.5985C7.01868 14.3895 9.25766 15.2804 11.2807 14.219C12.4693 13.5954 14.191 11.6785 15.4017 11.6785C16.2965 11.6785 17.234 12.4781 17.234 13.3712C17.234 14.7558 16.3968 15.483 15.4973 16.3911C12.5169 19.3994 7.43169 19.1936 4.19758 15.9686C3.98254 15.7543 3.92605 15.6487 3.73806 15.4315C3.12167 14.7197 2.92887 14.329 2.49831 13.4495C1.17202 10.7393 1.68047 6.87158 3.55078 4.73644C3.74106 4.51924 3.84744 4.35731 4.04421 4.15635C5.04608 3.13242 6.4743 2.33186 7.91826 1.98255C10.3603 1.3918 12.8275 2.06497 14.5512 3.38016C17.2634 5.44912 16.6607 6.67765 17.9212 6.67765C18.362 6.67765 18.6845 6.30191 18.6845 5.75443C18.6845 5.20598 17.1468 3.23726 16.6008 2.77644C14.0466 0.621428 11.0918 -0.540073 7.56992 0.246907C6.67203 0.4475 5.75369 0.78966 5.07985 1.19957C2.43881 2.80662 0.671745 5.05969 0.131084 8.21464C-0.0420047 9.22427 -0.0376775 10.4093 0.108727 11.395C0.443605 13.6504 1.42384 15.6342 2.97647 17.1989C3.27576 17.5005 3.49128 17.7599 3.83986 18.0217C5.74288 19.4507 7.64421 20.2957 10.2102 20.2957H10.2104ZM4.9427 21.296C4.9427 21.8847 5.25162 21.999 5.70417 22.2209C6.1161 22.4229 6.47045 22.5345 6.93623 22.6718C9.21751 23.3445 11.0943 23.2761 13.357 22.6972C14.338 22.4463 15.3255 22.1759 15.3255 21.296C15.3255 20.8463 14.9317 20.4495 14.4855 20.4495C14.294 20.4495 13.8357 20.6761 13.6372 20.7485C13.2915 20.8743 13.0829 20.9583 12.7146 21.0498C8.5653 22.0825 6.69799 20.4495 5.70598 20.4495C5.28359 20.4495 4.9427 20.8931 4.9427 21.296ZM10.5158 24.2196C7.82523 24.2196 7.67714 23.758 6.62226 23.758C6.21562 23.758 6.0114 24.2562 6.0114 24.7582C6.0114 25.4315 6.86002 25.5585 7.44587 25.6975C9.18421 26.1102 11.0417 26.1011 12.7918 25.667C13.525 25.4849 14.2565 25.3632 14.2565 24.5273C14.2565 24.0777 13.8628 23.681 13.4168 23.681C13.1053 23.681 12.9847 23.7654 12.7391 23.8444C12.1187 24.0438 11.2063 24.2196 10.5158 24.2196Z" fill="white"/>
</svg>
