<svg width="33" height="33" viewBox="0 0 33 33" fill="none" xmlns="http://www.w3.org/2000/svg">
<path d="M31.9688 10.25H1.03125C0.757746 10.25 0.495443 10.1414 0.302046 9.94795C0.108649 9.75456 0 9.49225 0 9.21875C0 8.94525 0.108649 8.68294 0.302046 8.48955C0.495443 8.29615 0.757746 8.1875 1.03125 8.1875H31.9688C32.2423 8.1875 32.5046 8.29615 32.698 8.48955C32.8913 8.68294 33 8.94525 33 9.21875C33 9.49225 32.8913 9.75456 32.698 9.94795C32.5046 10.1414 32.2423 10.25 31.9688 10.25Z" fill="#1A1A18"/>
<path d="M31.9688 18.5625H1.03125C0.757746 18.5625 0.495443 18.4539 0.302046 18.2605C0.108649 18.0671 0 17.8048 0 17.5312C0 17.2577 0.108649 16.9954 0.302046 16.802C0.495443 16.6086 0.757746 16.5 1.03125 16.5H31.9688C32.2423 16.5 32.5046 16.6086 32.698 16.802C32.8913 16.9954 33 17.2577 33 17.5312C33 17.8048 32.8913 18.0671 32.698 18.2605C32.5046 18.4539 32.2423 18.5625 31.9688 18.5625Z" fill="#1A1A18"/>
<path d="M31.9688 26.875H1.03125C0.757746 26.875 0.495443 26.7664 0.302046 26.573C0.108649 26.3796 0 26.1173 0 25.8438C0 25.5702 0.108649 25.3079 0.302046 25.1145C0.495443 24.9211 0.757746 24.8125 1.03125 24.8125H31.9688C32.2423 24.8125 32.5046 24.9211 32.698 25.1145C32.8913 25.3079 33 25.5702 33 25.8438C33 26.1173 32.8913 26.3796 32.698 26.573C32.5046 26.7664 32.2423 26.875 31.9688 26.875Z" fill="#1A1A18"/>
</svg>
